<mxfile host="app.diagrams.net" agent="Mozilla/5.0 (Windows NT 10.0; Win64; x64; rv:132.0) Gecko/20100101 Firefox/132.0" version="24.8.4">
  <diagram name="Page-1" id="iJUWPT20CNTJQqb2S2dw">
    <mxGraphModel dx="1235" dy="601" grid="1" gridSize="10" guides="1" tooltips="1" connect="1" arrows="1" fold="1" page="1" pageScale="1" pageWidth="850" pageHeight="1100" math="0" shadow="0">
      <root>
        <mxCell id="0" />
        <mxCell id="1" parent="0" />
        <mxCell id="aHnmFit9Kkiv0x-u43Mt-1" value="Ward" style="rounded=0;whiteSpace=wrap;html=1;fontSize=18;fontStyle=1" parent="1" vertex="1">
          <mxGeometry x="123" y="130" width="140" height="60" as="geometry" />
        </mxCell>
        <mxCell id="aHnmFit9Kkiv0x-u43Mt-2" value="Consultant" style="rounded=0;whiteSpace=wrap;html=1;fontSize=18;fontStyle=1" parent="1" vertex="1">
          <mxGeometry x="630" y="390" width="140" height="60" as="geometry" />
        </mxCell>
        <mxCell id="aHnmFit9Kkiv0x-u43Mt-3" value="Patient" style="rounded=0;whiteSpace=wrap;html=1;fontSize=18;fontStyle=1" parent="1" vertex="1">
          <mxGeometry x="123" y="390" width="140" height="60" as="geometry" />
        </mxCell>
        <mxCell id="aHnmFit9Kkiv0x-u43Mt-4" value="Nurse" style="rounded=0;whiteSpace=wrap;html=1;fontSize=18;fontStyle=1" parent="1" vertex="1">
          <mxGeometry x="630" y="130" width="140" height="60" as="geometry" />
        </mxCell>
        <mxCell id="aHnmFit9Kkiv0x-u43Mt-5" value="Drug" style="rounded=0;whiteSpace=wrap;html=1;fontSize=18;fontStyle=1" parent="1" vertex="1">
          <mxGeometry x="630" y="260" width="140" height="60" as="geometry" />
        </mxCell>
        <mxCell id="aHnmFit9Kkiv0x-u43Mt-6" value="Hosts" style="rhombus;whiteSpace=wrap;html=1;strokeWidth=1;fontSize=14;fontStyle=0" parent="1" vertex="1">
          <mxGeometry x="153" y="250" width="80" height="80" as="geometry" />
        </mxCell>
        <mxCell id="aHnmFit9Kkiv0x-u43Mt-7" value="" style="endArrow=none;html=1;rounded=0;exitX=0.5;exitY=1;exitDx=0;exitDy=0;entryX=0.5;entryY=0;entryDx=0;entryDy=0;shape=link;" parent="1" source="aHnmFit9Kkiv0x-u43Mt-6" target="aHnmFit9Kkiv0x-u43Mt-3" edge="1">
          <mxGeometry width="50" height="50" relative="1" as="geometry">
            <mxPoint x="403" y="410" as="sourcePoint" />
            <mxPoint x="193" y="380" as="targetPoint" />
          </mxGeometry>
        </mxCell>
        <mxCell id="aHnmFit9Kkiv0x-u43Mt-8" value="" style="endArrow=none;html=1;rounded=0;exitX=0.5;exitY=0;exitDx=0;exitDy=0;entryX=0.5;entryY=1;entryDx=0;entryDy=0;shape=link;" parent="1" source="aHnmFit9Kkiv0x-u43Mt-6" target="aHnmFit9Kkiv0x-u43Mt-1" edge="1">
          <mxGeometry width="50" height="50" relative="1" as="geometry">
            <mxPoint x="203" y="340" as="sourcePoint" />
            <mxPoint x="203" y="400" as="targetPoint" />
          </mxGeometry>
        </mxCell>
        <mxCell id="aHnmFit9Kkiv0x-u43Mt-10" value="Assigned to" style="rhombus;whiteSpace=wrap;html=1;strokeWidth=1;fontSize=14;fontStyle=0" parent="1" vertex="1">
          <mxGeometry x="363" y="380" width="90" height="80" as="geometry" />
        </mxCell>
        <mxCell id="aHnmFit9Kkiv0x-u43Mt-11" value="Examines" style="rhombus;whiteSpace=wrap;html=1;strokeWidth=1;fontSize=14;fontStyle=0" parent="1" vertex="1">
          <mxGeometry x="363" y="490" width="90" height="80" as="geometry" />
        </mxCell>
        <mxCell id="aHnmFit9Kkiv0x-u43Mt-12" value="" style="endArrow=none;html=1;rounded=0;exitX=0;exitY=0.5;exitDx=0;exitDy=0;entryX=1;entryY=0.5;entryDx=0;entryDy=0;shape=link;" parent="1" source="aHnmFit9Kkiv0x-u43Mt-10" target="aHnmFit9Kkiv0x-u43Mt-3" edge="1">
          <mxGeometry width="50" height="50" relative="1" as="geometry">
            <mxPoint x="243" y="340" as="sourcePoint" />
            <mxPoint x="243" y="400" as="targetPoint" />
          </mxGeometry>
        </mxCell>
        <mxCell id="aHnmFit9Kkiv0x-u43Mt-13" value="" style="endArrow=none;html=1;rounded=0;exitX=0;exitY=0.5;exitDx=0;exitDy=0;entryX=1;entryY=0.5;entryDx=0;entryDy=0;" parent="1" source="aHnmFit9Kkiv0x-u43Mt-2" target="aHnmFit9Kkiv0x-u43Mt-10" edge="1">
          <mxGeometry width="50" height="50" relative="1" as="geometry">
            <mxPoint x="373" y="430" as="sourcePoint" />
            <mxPoint x="313" y="430" as="targetPoint" />
          </mxGeometry>
        </mxCell>
        <mxCell id="aHnmFit9Kkiv0x-u43Mt-14" value="" style="endArrow=none;html=1;rounded=0;exitX=0.5;exitY=1;exitDx=0;exitDy=0;entryX=1;entryY=0.5;entryDx=0;entryDy=0;" parent="1" source="aHnmFit9Kkiv0x-u43Mt-2" target="aHnmFit9Kkiv0x-u43Mt-11" edge="1">
          <mxGeometry width="50" height="50" relative="1" as="geometry">
            <mxPoint x="513" y="430" as="sourcePoint" />
            <mxPoint x="463" y="430" as="targetPoint" />
            <Array as="points">
              <mxPoint x="700" y="530" />
            </Array>
          </mxGeometry>
        </mxCell>
        <mxCell id="aHnmFit9Kkiv0x-u43Mt-15" value="" style="endArrow=none;html=1;rounded=0;exitX=0.5;exitY=1;exitDx=0;exitDy=0;entryX=0;entryY=0.5;entryDx=0;entryDy=0;" parent="1" source="aHnmFit9Kkiv0x-u43Mt-3" target="aHnmFit9Kkiv0x-u43Mt-11" edge="1">
          <mxGeometry width="50" height="50" relative="1" as="geometry">
            <mxPoint x="583" y="460" as="sourcePoint" />
            <mxPoint x="463" y="540" as="targetPoint" />
            <Array as="points">
              <mxPoint x="193" y="530" />
            </Array>
          </mxGeometry>
        </mxCell>
        <mxCell id="aHnmFit9Kkiv0x-u43Mt-17" value="Serves in" style="rhombus;whiteSpace=wrap;html=1;strokeWidth=1;fontSize=14;fontStyle=0" parent="1" vertex="1">
          <mxGeometry x="360.5" y="10" width="95" height="80" as="geometry" />
        </mxCell>
        <mxCell id="aHnmFit9Kkiv0x-u43Mt-18" value="Supervises" style="rhombus;whiteSpace=wrap;html=1;strokeWidth=1;fontSize=14;fontStyle=0" parent="1" vertex="1">
          <mxGeometry x="360.5" y="120" width="95" height="80" as="geometry" />
        </mxCell>
        <mxCell id="aHnmFit9Kkiv0x-u43Mt-23" value="" style="endArrow=none;html=1;rounded=0;exitX=1;exitY=0.5;exitDx=0;exitDy=0;entryX=0;entryY=0.5;entryDx=0;entryDy=0;" parent="1" source="aHnmFit9Kkiv0x-u43Mt-18" target="aHnmFit9Kkiv0x-u43Mt-4" edge="1">
          <mxGeometry width="50" height="50" relative="1" as="geometry">
            <mxPoint x="433" y="230" as="sourcePoint" />
            <mxPoint x="483" y="180" as="targetPoint" />
          </mxGeometry>
        </mxCell>
        <mxCell id="aHnmFit9Kkiv0x-u43Mt-24" value="" style="endArrow=none;html=1;rounded=0;exitX=0;exitY=0.5;exitDx=0;exitDy=0;entryX=1;entryY=0.5;entryDx=0;entryDy=0;shape=link;" parent="1" source="aHnmFit9Kkiv0x-u43Mt-18" target="aHnmFit9Kkiv0x-u43Mt-1" edge="1">
          <mxGeometry width="50" height="50" relative="1" as="geometry">
            <mxPoint x="466" y="170" as="sourcePoint" />
            <mxPoint x="573" y="170" as="targetPoint" />
          </mxGeometry>
        </mxCell>
        <mxCell id="aHnmFit9Kkiv0x-u43Mt-25" value="" style="endArrow=none;html=1;rounded=0;exitX=1;exitY=0.5;exitDx=0;exitDy=0;entryX=0.5;entryY=0;entryDx=0;entryDy=0;shape=link;" parent="1" source="aHnmFit9Kkiv0x-u43Mt-17" target="aHnmFit9Kkiv0x-u43Mt-4" edge="1">
          <mxGeometry width="50" height="50" relative="1" as="geometry">
            <mxPoint x="371" y="170" as="sourcePoint" />
            <mxPoint x="273" y="170" as="targetPoint" />
            <Array as="points">
              <mxPoint x="700" y="50" />
            </Array>
          </mxGeometry>
        </mxCell>
        <mxCell id="aHnmFit9Kkiv0x-u43Mt-26" value="" style="endArrow=none;html=1;rounded=0;exitX=0;exitY=0.5;exitDx=0;exitDy=0;entryX=0.5;entryY=0;entryDx=0;entryDy=0;" parent="1" source="aHnmFit9Kkiv0x-u43Mt-17" target="aHnmFit9Kkiv0x-u43Mt-1" edge="1">
          <mxGeometry width="50" height="50" relative="1" as="geometry">
            <mxPoint x="423" y="140" as="sourcePoint" />
            <mxPoint x="473" y="90" as="targetPoint" />
            <Array as="points">
              <mxPoint x="193" y="50" />
            </Array>
          </mxGeometry>
        </mxCell>
        <mxCell id="aHnmFit9Kkiv0x-u43Mt-27" value="name" style="ellipse;whiteSpace=wrap;html=1;fontSize=16;fontStyle=0" parent="1" vertex="1">
          <mxGeometry x="43" y="90" width="70" height="40" as="geometry" />
        </mxCell>
        <mxCell id="aHnmFit9Kkiv0x-u43Mt-28" value="ward_id" style="ellipse;whiteSpace=wrap;html=1;fontSize=16;fontStyle=4" parent="1" vertex="1">
          <mxGeometry x="93" y="50" width="70" height="40" as="geometry" />
        </mxCell>
        <mxCell id="aHnmFit9Kkiv0x-u43Mt-30" value="" style="endArrow=none;html=1;rounded=0;exitX=1;exitY=1;exitDx=0;exitDy=0;entryX=0.25;entryY=0;entryDx=0;entryDy=0;" parent="1" source="aHnmFit9Kkiv0x-u43Mt-28" target="aHnmFit9Kkiv0x-u43Mt-1" edge="1">
          <mxGeometry width="50" height="50" relative="1" as="geometry">
            <mxPoint x="163" y="150" as="sourcePoint" />
            <mxPoint x="213" y="100" as="targetPoint" />
          </mxGeometry>
        </mxCell>
        <mxCell id="aHnmFit9Kkiv0x-u43Mt-31" value="" style="endArrow=none;html=1;rounded=0;exitX=0;exitY=0.25;exitDx=0;exitDy=0;entryX=0.5;entryY=1;entryDx=0;entryDy=0;" parent="1" source="aHnmFit9Kkiv0x-u43Mt-1" target="aHnmFit9Kkiv0x-u43Mt-27" edge="1">
          <mxGeometry width="50" height="50" relative="1" as="geometry">
            <mxPoint x="163" y="150" as="sourcePoint" />
            <mxPoint x="213" y="100" as="targetPoint" />
          </mxGeometry>
        </mxCell>
        <mxCell id="aHnmFit9Kkiv0x-u43Mt-32" value="patient_id" style="ellipse;whiteSpace=wrap;html=1;fontSize=16;fontStyle=4" parent="1" vertex="1">
          <mxGeometry x="23" y="360" width="90" height="40" as="geometry" />
        </mxCell>
        <mxCell id="aHnmFit9Kkiv0x-u43Mt-33" value="birthdate" style="ellipse;whiteSpace=wrap;html=1;fontSize=16;fontStyle=0" parent="1" vertex="1">
          <mxGeometry x="73" y="470" width="70" height="40" as="geometry" />
        </mxCell>
        <mxCell id="aHnmFit9Kkiv0x-u43Mt-34" value="name" style="ellipse;whiteSpace=wrap;html=1;fontSize=16;fontStyle=0" parent="1" vertex="1">
          <mxGeometry x="23" y="430" width="70" height="40" as="geometry" />
        </mxCell>
        <mxCell id="aHnmFit9Kkiv0x-u43Mt-35" value="" style="endArrow=none;html=1;rounded=0;exitX=1;exitY=0.5;exitDx=0;exitDy=0;entryX=0;entryY=0.75;entryDx=0;entryDy=0;" parent="1" source="aHnmFit9Kkiv0x-u43Mt-34" target="aHnmFit9Kkiv0x-u43Mt-3" edge="1">
          <mxGeometry width="50" height="50" relative="1" as="geometry">
            <mxPoint x="183" y="420" as="sourcePoint" />
            <mxPoint x="233" y="370" as="targetPoint" />
          </mxGeometry>
        </mxCell>
        <mxCell id="aHnmFit9Kkiv0x-u43Mt-36" value="" style="endArrow=none;html=1;rounded=0;exitX=0.5;exitY=1;exitDx=0;exitDy=0;entryX=0;entryY=0.5;entryDx=0;entryDy=0;" parent="1" source="aHnmFit9Kkiv0x-u43Mt-32" target="aHnmFit9Kkiv0x-u43Mt-3" edge="1">
          <mxGeometry width="50" height="50" relative="1" as="geometry">
            <mxPoint x="183" y="420" as="sourcePoint" />
            <mxPoint x="233" y="370" as="targetPoint" />
          </mxGeometry>
        </mxCell>
        <mxCell id="aHnmFit9Kkiv0x-u43Mt-37" value="" style="endArrow=none;html=1;rounded=0;exitX=1;exitY=0;exitDx=0;exitDy=0;entryX=0.25;entryY=1;entryDx=0;entryDy=0;" parent="1" source="aHnmFit9Kkiv0x-u43Mt-33" target="aHnmFit9Kkiv0x-u43Mt-3" edge="1">
          <mxGeometry width="50" height="50" relative="1" as="geometry">
            <mxPoint x="193" y="500" as="sourcePoint" />
            <mxPoint x="243" y="450" as="targetPoint" />
          </mxGeometry>
        </mxCell>
        <mxCell id="aHnmFit9Kkiv0x-u43Mt-38" value="consultant_id" style="ellipse;whiteSpace=wrap;html=1;fontSize=16;fontStyle=4" parent="1" vertex="1">
          <mxGeometry x="760" y="470" width="130" height="40" as="geometry" />
        </mxCell>
        <mxCell id="aHnmFit9Kkiv0x-u43Mt-39" value="name" style="ellipse;whiteSpace=wrap;html=1;fontSize=16;fontStyle=0" parent="1" vertex="1">
          <mxGeometry x="800" y="420" width="80" height="40" as="geometry" />
        </mxCell>
        <mxCell id="aHnmFit9Kkiv0x-u43Mt-40" value="" style="endArrow=none;html=1;rounded=0;exitX=0.75;exitY=1;exitDx=0;exitDy=0;entryX=0;entryY=0;entryDx=0;entryDy=0;" parent="1" source="aHnmFit9Kkiv0x-u43Mt-2" target="aHnmFit9Kkiv0x-u43Mt-38" edge="1">
          <mxGeometry width="50" height="50" relative="1" as="geometry">
            <mxPoint x="620" y="470" as="sourcePoint" />
            <mxPoint x="670" y="420" as="targetPoint" />
          </mxGeometry>
        </mxCell>
        <mxCell id="aHnmFit9Kkiv0x-u43Mt-41" value="" style="endArrow=none;html=1;rounded=0;exitX=1;exitY=0.75;exitDx=0;exitDy=0;entryX=0;entryY=0.5;entryDx=0;entryDy=0;" parent="1" source="aHnmFit9Kkiv0x-u43Mt-2" target="aHnmFit9Kkiv0x-u43Mt-39" edge="1">
          <mxGeometry width="50" height="50" relative="1" as="geometry">
            <mxPoint x="745" y="460" as="sourcePoint" />
            <mxPoint x="789" y="486" as="targetPoint" />
          </mxGeometry>
        </mxCell>
        <mxCell id="aHnmFit9Kkiv0x-u43Mt-44" value="" style="group" parent="1" vertex="1" connectable="0">
          <mxGeometry x="800" y="240" width="80" height="50" as="geometry" />
        </mxCell>
        <mxCell id="aHnmFit9Kkiv0x-u43Mt-42" value="" style="ellipse;whiteSpace=wrap;html=1;" parent="aHnmFit9Kkiv0x-u43Mt-44" vertex="1">
          <mxGeometry width="80" height="50" as="geometry" />
        </mxCell>
        <mxCell id="aHnmFit9Kkiv0x-u43Mt-43" value="brand name" style="ellipse;whiteSpace=wrap;html=1;" parent="aHnmFit9Kkiv0x-u43Mt-44" vertex="1">
          <mxGeometry x="5" y="5" width="70" height="40" as="geometry" />
        </mxCell>
        <mxCell id="aHnmFit9Kkiv0x-u43Mt-45" value="rec_dosage" style="ellipse;whiteSpace=wrap;html=1;fontSize=16;fontStyle=0" parent="1" vertex="1">
          <mxGeometry x="785" y="300" width="110" height="40" as="geometry" />
        </mxCell>
        <mxCell id="aHnmFit9Kkiv0x-u43Mt-46" value="code" style="ellipse;whiteSpace=wrap;html=1;fontSize=16;fontStyle=4" parent="1" vertex="1">
          <mxGeometry x="760" y="200" width="80" height="40" as="geometry" />
        </mxCell>
        <mxCell id="aHnmFit9Kkiv0x-u43Mt-47" value="" style="endArrow=none;html=1;rounded=0;entryX=1;entryY=0.75;entryDx=0;entryDy=0;exitX=0;exitY=0;exitDx=0;exitDy=0;" parent="1" source="aHnmFit9Kkiv0x-u43Mt-45" target="aHnmFit9Kkiv0x-u43Mt-5" edge="1">
          <mxGeometry width="50" height="50" relative="1" as="geometry">
            <mxPoint x="700" y="390" as="sourcePoint" />
            <mxPoint x="750" y="340" as="targetPoint" />
          </mxGeometry>
        </mxCell>
        <mxCell id="aHnmFit9Kkiv0x-u43Mt-48" value="" style="endArrow=none;html=1;rounded=0;entryX=1;entryY=0.25;entryDx=0;entryDy=0;exitX=0;exitY=0.5;exitDx=0;exitDy=0;" parent="1" source="aHnmFit9Kkiv0x-u43Mt-42" target="aHnmFit9Kkiv0x-u43Mt-5" edge="1">
          <mxGeometry width="50" height="50" relative="1" as="geometry">
            <mxPoint x="740" y="350" as="sourcePoint" />
            <mxPoint x="790" y="300" as="targetPoint" />
          </mxGeometry>
        </mxCell>
        <mxCell id="aHnmFit9Kkiv0x-u43Mt-49" value="" style="endArrow=none;html=1;rounded=0;entryX=0.75;entryY=0;entryDx=0;entryDy=0;exitX=0;exitY=1;exitDx=0;exitDy=0;" parent="1" source="aHnmFit9Kkiv0x-u43Mt-46" target="aHnmFit9Kkiv0x-u43Mt-5" edge="1">
          <mxGeometry width="50" height="50" relative="1" as="geometry">
            <mxPoint x="810" y="275" as="sourcePoint" />
            <mxPoint x="780" y="285" as="targetPoint" />
          </mxGeometry>
        </mxCell>
        <mxCell id="aHnmFit9Kkiv0x-u43Mt-50" value="number" style="ellipse;whiteSpace=wrap;html=1;fontSize=16;fontStyle=4" parent="1" vertex="1">
          <mxGeometry x="785" y="120" width="80" height="40" as="geometry" />
        </mxCell>
        <mxCell id="aHnmFit9Kkiv0x-u43Mt-51" value="" style="endArrow=none;html=1;rounded=0;entryX=1;entryY=0.5;entryDx=0;entryDy=0;exitX=0;exitY=1;exitDx=0;exitDy=0;" parent="1" source="aHnmFit9Kkiv0x-u43Mt-50" target="aHnmFit9Kkiv0x-u43Mt-4" edge="1">
          <mxGeometry width="50" height="50" relative="1" as="geometry">
            <mxPoint x="750" y="240" as="sourcePoint" />
            <mxPoint x="800" y="190" as="targetPoint" />
          </mxGeometry>
        </mxCell>
        <mxCell id="aHnmFit9Kkiv0x-u43Mt-54" value="address" style="ellipse;whiteSpace=wrap;html=1;fontSize=16;fontStyle=0" parent="1" vertex="1">
          <mxGeometry x="760" y="70" width="80" height="40" as="geometry" />
        </mxCell>
        <mxCell id="aHnmFit9Kkiv0x-u43Mt-55" value="" style="endArrow=none;html=1;rounded=0;entryX=0.75;entryY=0;entryDx=0;entryDy=0;exitX=0;exitY=1;exitDx=0;exitDy=0;" parent="1" source="aHnmFit9Kkiv0x-u43Mt-54" target="aHnmFit9Kkiv0x-u43Mt-4" edge="1">
          <mxGeometry width="50" height="50" relative="1" as="geometry">
            <mxPoint x="807" y="164" as="sourcePoint" />
            <mxPoint x="780" y="170" as="targetPoint" />
          </mxGeometry>
        </mxCell>
        <mxCell id="aHnmFit9Kkiv0x-u43Mt-63" value="M" style="text;html=1;align=center;verticalAlign=middle;resizable=0;points=[];autosize=1;strokeColor=none;fillColor=none;" parent="1" vertex="1">
          <mxGeometry x="193" y="360" width="30" height="30" as="geometry" />
        </mxCell>
        <mxCell id="aHnmFit9Kkiv0x-u43Mt-64" value="1" style="text;html=1;align=center;verticalAlign=middle;resizable=0;points=[];autosize=1;strokeColor=none;fillColor=none;" parent="1" vertex="1">
          <mxGeometry x="193" y="190" width="30" height="30" as="geometry" />
        </mxCell>
        <mxCell id="aHnmFit9Kkiv0x-u43Mt-65" value="1" style="text;html=1;align=center;verticalAlign=middle;resizable=0;points=[];autosize=1;strokeColor=none;fillColor=none;" parent="1" vertex="1">
          <mxGeometry x="600" y="420" width="30" height="30" as="geometry" />
        </mxCell>
        <mxCell id="aHnmFit9Kkiv0x-u43Mt-66" value="M" style="text;html=1;align=center;verticalAlign=middle;resizable=0;points=[];autosize=1;strokeColor=none;fillColor=none;" parent="1" vertex="1">
          <mxGeometry x="260" y="420" width="30" height="30" as="geometry" />
        </mxCell>
        <mxCell id="aHnmFit9Kkiv0x-u43Mt-67" value="M" style="text;html=1;align=center;verticalAlign=middle;resizable=0;points=[];autosize=1;strokeColor=none;fillColor=none;" parent="1" vertex="1">
          <mxGeometry x="670" y="450" width="30" height="30" as="geometry" />
        </mxCell>
        <mxCell id="aHnmFit9Kkiv0x-u43Mt-68" value="M" style="text;html=1;align=center;verticalAlign=middle;resizable=0;points=[];autosize=1;strokeColor=none;fillColor=none;" parent="1" vertex="1">
          <mxGeometry x="193" y="450" width="30" height="30" as="geometry" />
        </mxCell>
        <mxCell id="aHnmFit9Kkiv0x-u43Mt-69" value="1" style="text;html=1;align=center;verticalAlign=middle;resizable=0;points=[];autosize=1;strokeColor=none;fillColor=none;" parent="1" vertex="1">
          <mxGeometry x="263" y="130" width="30" height="30" as="geometry" />
        </mxCell>
        <mxCell id="aHnmFit9Kkiv0x-u43Mt-70" value="1" style="text;html=1;align=center;verticalAlign=middle;resizable=0;points=[];autosize=1;strokeColor=none;fillColor=none;" parent="1" vertex="1">
          <mxGeometry x="600" y="130" width="30" height="30" as="geometry" />
        </mxCell>
        <mxCell id="aHnmFit9Kkiv0x-u43Mt-71" value="M" style="text;html=1;align=center;verticalAlign=middle;resizable=0;points=[];autosize=1;strokeColor=none;fillColor=none;" parent="1" vertex="1">
          <mxGeometry x="670" y="100" width="30" height="30" as="geometry" />
        </mxCell>
        <mxCell id="aHnmFit9Kkiv0x-u43Mt-72" value="1" style="text;html=1;align=center;verticalAlign=middle;resizable=0;points=[];autosize=1;strokeColor=none;fillColor=none;" parent="1" vertex="1">
          <mxGeometry x="193" y="100" width="30" height="30" as="geometry" />
        </mxCell>
        <mxCell id="-qxKmzywetknt1hVF6cX-2" value="Gives" style="rhombus;whiteSpace=wrap;html=1;strokeWidth=1;fontSize=14;fontStyle=0" vertex="1" parent="1">
          <mxGeometry x="365.5" y="250" width="90" height="80" as="geometry" />
        </mxCell>
        <mxCell id="-qxKmzywetknt1hVF6cX-3" value="" style="endArrow=none;html=1;rounded=0;exitX=1;exitY=0;exitDx=0;exitDy=0;entryX=0;entryY=1;entryDx=0;entryDy=0;shape=link;" edge="1" parent="1" source="aHnmFit9Kkiv0x-u43Mt-3" target="-qxKmzywetknt1hVF6cX-2">
          <mxGeometry width="50" height="50" relative="1" as="geometry">
            <mxPoint x="590" y="390" as="sourcePoint" />
            <mxPoint x="640" y="340" as="targetPoint" />
          </mxGeometry>
        </mxCell>
        <mxCell id="-qxKmzywetknt1hVF6cX-4" value="" style="endArrow=none;html=1;rounded=0;exitX=1;exitY=0;exitDx=0;exitDy=0;entryX=0;entryY=1;entryDx=0;entryDy=0;shape=link;" edge="1" parent="1" source="-qxKmzywetknt1hVF6cX-2" target="aHnmFit9Kkiv0x-u43Mt-4">
          <mxGeometry width="50" height="50" relative="1" as="geometry">
            <mxPoint x="590" y="390" as="sourcePoint" />
            <mxPoint x="640" y="340" as="targetPoint" />
          </mxGeometry>
        </mxCell>
        <mxCell id="-qxKmzywetknt1hVF6cX-5" value="" style="endArrow=none;html=1;rounded=0;exitX=1;exitY=0.5;exitDx=0;exitDy=0;entryX=0;entryY=0.5;entryDx=0;entryDy=0;shape=link;" edge="1" parent="1" source="-qxKmzywetknt1hVF6cX-2" target="aHnmFit9Kkiv0x-u43Mt-5">
          <mxGeometry width="50" height="50" relative="1" as="geometry">
            <mxPoint x="590" y="390" as="sourcePoint" />
            <mxPoint x="640" y="340" as="targetPoint" />
          </mxGeometry>
        </mxCell>
        <mxCell id="-qxKmzywetknt1hVF6cX-6" value="dosage" style="ellipse;whiteSpace=wrap;html=1;fontSize=16;fontStyle=0" vertex="1" parent="1">
          <mxGeometry x="425" y="320" width="70" height="40" as="geometry" />
        </mxCell>
        <mxCell id="-qxKmzywetknt1hVF6cX-7" value="date" style="ellipse;whiteSpace=wrap;html=1;fontSize=16;fontStyle=0" vertex="1" parent="1">
          <mxGeometry x="280" y="270" width="70" height="40" as="geometry" />
        </mxCell>
        <mxCell id="-qxKmzywetknt1hVF6cX-8" value="time" style="ellipse;whiteSpace=wrap;html=1;fontSize=16;fontStyle=0" vertex="1" parent="1">
          <mxGeometry x="310" y="220" width="70" height="40" as="geometry" />
        </mxCell>
        <mxCell id="-qxKmzywetknt1hVF6cX-9" value="" style="endArrow=none;html=1;rounded=0;exitX=1;exitY=0.5;exitDx=0;exitDy=0;entryX=0;entryY=0.5;entryDx=0;entryDy=0;" edge="1" parent="1" source="-qxKmzywetknt1hVF6cX-7" target="-qxKmzywetknt1hVF6cX-2">
          <mxGeometry width="50" height="50" relative="1" as="geometry">
            <mxPoint x="570" y="340" as="sourcePoint" />
            <mxPoint x="620" y="290" as="targetPoint" />
          </mxGeometry>
        </mxCell>
        <mxCell id="-qxKmzywetknt1hVF6cX-10" value="" style="endArrow=none;html=1;rounded=0;exitX=0.614;exitY=0.895;exitDx=0;exitDy=0;entryX=0;entryY=0;entryDx=0;entryDy=0;exitPerimeter=0;" edge="1" parent="1" source="-qxKmzywetknt1hVF6cX-2" target="-qxKmzywetknt1hVF6cX-6">
          <mxGeometry width="50" height="50" relative="1" as="geometry">
            <mxPoint x="371" y="280" as="sourcePoint" />
            <mxPoint x="398" y="280" as="targetPoint" />
          </mxGeometry>
        </mxCell>
        <mxCell id="-qxKmzywetknt1hVF6cX-11" value="" style="endArrow=none;html=1;rounded=0;exitX=1;exitY=1;exitDx=0;exitDy=0;entryX=0;entryY=0;entryDx=0;entryDy=0;" edge="1" parent="1" source="-qxKmzywetknt1hVF6cX-8" target="-qxKmzywetknt1hVF6cX-2">
          <mxGeometry width="50" height="50" relative="1" as="geometry">
            <mxPoint x="431" y="332" as="sourcePoint" />
            <mxPoint x="445" y="336" as="targetPoint" />
          </mxGeometry>
        </mxCell>
        <mxCell id="-qxKmzywetknt1hVF6cX-12" value="M" style="text;html=1;align=center;verticalAlign=middle;resizable=0;points=[];autosize=1;strokeColor=none;fillColor=none;" vertex="1" parent="1">
          <mxGeometry x="600" y="260" width="30" height="30" as="geometry" />
        </mxCell>
        <mxCell id="-qxKmzywetknt1hVF6cX-13" value="M" style="text;html=1;align=center;verticalAlign=middle;resizable=0;points=[];autosize=1;strokeColor=none;fillColor=none;" vertex="1" parent="1">
          <mxGeometry x="600" y="160" width="30" height="30" as="geometry" />
        </mxCell>
        <mxCell id="-qxKmzywetknt1hVF6cX-14" value="M" style="text;html=1;align=center;verticalAlign=middle;resizable=0;points=[];autosize=1;strokeColor=none;fillColor=none;" vertex="1" parent="1">
          <mxGeometry x="240" y="360" width="30" height="30" as="geometry" />
        </mxCell>
      </root>
    </mxGraphModel>
  </diagram>
</mxfile>
